<?xml version="1.0" standalone="no"?>
<!DOCTYPE svg PUBLIC "-//W3C//DTD SVG 20010904//EN"
 "http://www.w3.org/TR/2001/REC-SVG-20010904/DTD/svg10.dtd">
<svg version="1.0" xmlns="http://www.w3.org/2000/svg"
 width="512.000000pt" height="512.000000pt" viewBox="0 0 512.000000 512.000000"
 preserveAspectRatio="xMidYMid meet">
<metadata>
Created by potrace 1.14, written by Peter Selinger 2001-2017
</metadata>
<g transform="translate(0.000000,512.000000) scale(0.100000,-0.100000)"
fill="#000000" stroke="none">
<path d="M2484 4980 c-71 -16 -133 -74 -158 -148 -18 -54 -13 -277 7 -324 21
-50 88 -112 135 -126 22 -7 102 -12 184 -12 l144 0 0 -114 0 -114 -41 -6
c-205 -33 -477 -132 -661 -242 -39 -24 -75 -44 -81 -46 -5 -2 -36 28 -68 65
l-58 69 29 25 c16 14 41 36 57 48 38 33 48 64 32 100 -7 17 -53 75 -102 130
-124 140 -114 141 -293 -15 -42 -36 -102 -87 -135 -115 -59 -50 -98 -84 -214
-185 -35 -30 -70 -59 -77 -63 -27 -16 -45 -64 -34 -92 16 -43 186 -232 215
-239 31 -8 65 9 124 62 l43 40 37 -42 c20 -22 46 -52 58 -65 l23 -25 -24 -26
c-12 -14 -33 -36 -46 -50 -21 -24 -131 -170 -176 -235 l-21 -30 -256 0 c-246
-1 -258 -2 -278 -21 -28 -28 -28 -79 -1 -107 21 -20 32 -22 225 -23 111 -1
208 -3 215 -3 9 -1 5 -15 -11 -48 -13 -27 -37 -81 -52 -120 l-28 -73 -394 0
-394 0 -24 -25 c-32 -32 -33 -74 -1 -104 l25 -23 371 0 c341 0 370 -1 366 -16
-8 -32 -16 -69 -21 -108 -4 -21 -8 -46 -10 -54 -2 -8 -7 -35 -10 -60 -3 -25
-7 -54 -9 -65 -3 -20 -11 -20 -512 -21 -280 -1 -516 -2 -525 -3 -8 0 -25 -10
-38 -22 -27 -25 -24 -77 5 -106 16 -17 52 -18 533 -20 284 -1 519 -2 522 -2 4
-1 7 -44 8 -96 1 -86 5 -135 16 -202 l4 -23 -383 0 c-373 0 -384 -1 -410 -21
-36 -28 -36 -80 0 -108 26 -20 37 -21 424 -21 l398 0 6 -37 c4 -21 18 -73 32
-115 14 -43 23 -81 20 -86 -3 -5 -89 -8 -192 -8 -161 1 -191 -1 -215 -16 -16
-10 -29 -23 -30 -30 0 -7 -2 -22 -4 -32 -2 -11 8 -30 23 -46 l27 -27 232 1
231 1 40 -82 c188 -378 535 -716 926 -902 212 -101 457 -169 671 -188 471 -42
915 68 1305 322 89 58 104 76 97 119 -5 32 -1 38 53 85 55 48 59 50 89 38 45
-17 69 -1 169 113 176 200 323 456 401 700 36 112 39 124 52 185 7 33 13 62
14 65 1 3 5 30 9 60 5 30 10 64 13 75 2 11 6 99 8 195 4 204 -10 346 -51 514
-8 34 -17 71 -20 83 -6 32 -63 190 -86 243 -61 139 -143 283 -221 389 -40 56
-51 69 -137 170 -25 29 -45 56 -45 60 0 4 22 33 50 65 39 45 51 55 60 44 16
-21 98 -84 118 -91 37 -13 66 6 134 86 37 45 80 96 95 112 45 48 38 79 -31
144 -33 31 -95 85 -137 121 -43 36 -85 72 -93 80 -62 57 -290 249 -308 258
-50 27 -66 17 -166 -101 -23 -27 -49 -56 -57 -65 -67 -68 -65 -101 10 -170 33
-30 60 -59 60 -64 0 -8 -12 -22 -75 -94 l-31 -34 -49 31 c-46 29 -201 107
-271 136 -121 51 -361 117 -441 122 -10 1 -13 31 -13 115 l0 114 163 4 c175 3
199 10 253 66 53 55 64 95 64 239 0 107 -3 139 -19 175 -22 50 -61 90 -115
116 -36 18 -73 19 -640 19 -330 0 -615 -3 -632 -7z"/>
</g>
</svg>
